<svg width="475" height="475" xmlns="http://www.w3.org/2000/svg">
  <g>
    <rect height="475" width="475" fill="#ffffff"/>
    <rect height="25" width="25" y="13" x="125" fill="#898989"/>
    <rect height="50" width="25" y="38" x="100" fill="#898989"/>
    <rect height="75" width="25" y="88" x="75" fill="#898989"/>
    <rect height="25" width="25" y="163" x="50" fill="#898989"/>
    <rect height="25" width="25" y="188" x="25" fill="#898989"/>
    <rect height="25" width="25" y="213" x="0" fill="#898989"/>`
    <rect height="25" width="25" y="288" x="75" fill="#898989"/>
    <rect height="25" width="25" y="263" x="50" fill="#898989"/>
    <rect height="25" width="25" y="238" x="25" fill="#898989"/>
    <rect height="25" width="50" y="338" x="75" fill="#898989"/>
    <rect height="25" width="25" y="363" x="125" fill="#898989"/>
    <rect height="25" width="25" y="388" x="150" fill="#898989"/>
    <rect height="25" width="25" y="413" x="175" fill="#898989"/>
    <rect height="25" width="75" y="438" x="200" fill="#898989"/>
    <rect height="50" width="25" y="38" x="150" fill="#898989"/>
    <rect height="25" width="25" y="113" x="175" fill="#898989"/>
    <rect height="25" width="75" y="88" x="200" fill="#898989"/>
    <rect height="25" width="25" y="113" x="275" fill="#898989"/>
    <rect height="25" width="25" y="13" x="325" fill="#898989"/>
    <rect height="50" width="25" y="38" x="300" fill="#898989"/>
    <rect height="50" width="25" y="38" x="350" fill="#898989"/>
    <rect height="75" width="25" y="88" x="375" fill="#898989"/>
    <rect height="25" width="25" y="163" x="400" fill="#898989"/>
    <rect height="25" width="25" y="188" x="425" fill="#898989"/>
    <rect height="25" width="25" y="213" x="450" fill="#898989"/>
    <rect height="25" width="25" y="288" x="375" fill="#898989"/>
    <rect height="25" width="25" y="263" x="400" fill="#898989"/>
    <rect height="25" width="25" y="238" x="425" fill="#898989"/>
    <rect height="25" width="50" y="338" x="350" fill="#898989"/>
    <rect height="25" width="25" y="363" x="325" fill="#898989"/>
    <rect height="25" width="25" y="388" x="300" fill="#898989"/>
    <rect height="25" width="25" y="413" x="275" fill="#898989"/>
    <rect height="50" width="25" y="38" x="125" fill="#e5e5e5"/>
    <rect height="25" width="25" y="88" x="125" fill="#d1d1d1"/>
    <rect height="50" width="25" y="38" x="325" fill="#e5e5e5"/>
    <rect height="25" width="25" y="88" x="325" fill="#d1d1d1"/>
    <rect height="50" width="25" y="88" x="150" fill="#e5e5e5"/>
    <rect height="75" width="25" y="88" x="100" fill="#e5e5e5"/>
    <rect height="75" width="25" y="88" x="350" fill="#e5e5e5"/>
    <rect height="50" width="25" y="88" x="300" fill="#e5e5e5"/>
    <rect height="25" width="75" y="113" x="200" fill="#e5e5e5"/>
    <rect height="25" width="25" y="163" x="75" fill="#e5e5e5"/>
    <rect height="75" width="25" y="188" x="50" fill="#e5e5e5"/>
    <rect height="25" width="25" y="213" x="25" fill="#e5e5e5"/>
    <rect height="25" width="25" y="263" x="75" fill="#e5e5e5"/>
    <rect height="25" width="25" y="138" x="175" fill="#e5e5e5"/>
    <rect height="25" width="25" y="138" x="275" fill="#e5e5e5"/>
    <rect height="75" width="25" y="188" x="400" fill="#e5e5e5"/>
    <rect height="25" width="25" y="213" x="425" fill="#e5e5e5"/>
    <rect height="25" width="25" y="263" x="375" fill="#e5e5e5"/>
    <rect height="25" width="25" y="163" x="375" fill="#e5e5e5"/>
    <rect height="25" width="50" y="213" x="100" fill="#d1d1d1"/>
    <rect height="25" width="50" y="238" x="125" fill="#d1d1d1"/>
    <rect height="25" width="50" y="238" x="300" fill="#d1d1d1"/>
    <rect height="25" width="50" y="213" x="325" fill="#d1d1d1"/>
    <rect height="25" width="25" y="213" x="200" fill="#d1d1d1"/>
    <rect height="25" width="25" y="213" x="250" fill="#d1d1d1"/>
    <rect height="75" width="75" y="238" x="200" fill="#a5a5a5"/>
    <rect height="25" width="25" y="263" x="175" fill="#a5a5a5"/>
    <rect height="25" width="25" y="263" x="275" fill="#a5a5a5"/>
    <rect height="25" width="25" y="288" x="150" fill="#a5a5a5"/>
    <rect height="25" width="25" y="288" x="300" fill="#a5a5a5"/>
    <rect height="25" width="25" y="288" x="175" fill="#d1d1d1"/>
    <rect height="25" width="25" y="288" x="275" fill="#d1d1d1"/>
    <rect height="25" width="50" y="313" x="75" fill="#a5a5a5"/>
    <rect height="50" width="50" y="313" x="125" fill="#a5a5a5"/>
    <rect height="75" width="125" y="313" x="175" fill="#a5a5a5"/>
    <rect height="50" width="50" y="313" x="300" fill="#a5a5a5"/>
    <rect height="25" width="50" y="313" x="350" fill="#a5a5a5"/>
    <rect height="25" width="75" y="413" x="200" fill="#a5a5a5"/>
    <rect height="25" width="25" y="363" x="150" fill="#d1d1d1"/>
    <rect height="25" width="25" y="363" x="300" fill="#d1d1d1"/>
    <rect height="25" width="125" y="388" x="175" fill="#d1d1d1"/>
  </g>
</svg>